# xmcd
#
# Track frame offsets:
#	183
#	9178
#	23063
#	33418
#	42660
#	54575
#	66658
#	78625
#	89865
#	102280
#	115340
#	128925
#	141563
#	154128
#	165333
#	177905
#	190433
#	203560
#	214690
#	225433
#	235908
#	249448
#	260803
#
# Disc length: 3678 seconds
#
# Revision: 3
# Processed by: cddbd v1.5.2PL0 Copyright (c) Steve Scherf et al.
# Submitted via: EasyCDDAExtractor 16.0.6.1
#
DISCID=4d0e5c17
DTITLE=Irma Thomas - The Best of Irma Thomas
DYEAR=1992
DGENRE=Soul
TTITLE0=Girl Needs Boy
TTITLE1=It's Too Soon to Know
TTITLE2=Gone
TTITLE3=It's Raining
TTITLE4=Two Winters Long
TTITLE5=Ruler of My Heart
TTITLE6=While the City Sleeps
TTITLE7=Wish Someone Would Care
TTITLE8=Break-A-Way
TTITLE9=Time Is on My Side
TTITLE10=Anyone Who Knows What Love Is (Will Understand)
TTITLE11=(I Want A) True, True Love
TTITLE12=Think Again
TTITLE13=Long After Tonight Is All Over
TTITLE14=Times Have Changed
TTITLE15=He's My Guy
TTITLE16=Maybe
TTITLE17=I'm Gonna Cry Till My Tears Run Dry
TTITLE18=The Hurt's All Gone
TTITLE19=Live Again
TTITLE20=Some Things You Never Get Used To
TTITLE21=It's Starting to Get to Me Now
TTITLE22=Take a Look
EXTD=YEAR: 1992
EXTT0=
EXTT1=
EXTT2=
EXTT3=
EXTT4=
EXTT5=
EXTT6=
EXTT7=
EXTT8=
EXTT9=
EXTT10=
EXTT11=
EXTT12=
EXTT13=
EXTT14=
EXTT15=
EXTT16=
EXTT17=
EXTT18=
EXTT19=
EXTT20=
EXTT21=
EXTT22=
PLAYORDER=
